{
	"asset":{
		"generator":"Khronos glTF Blender I/O v4.0.44",
		"version":"2.0"
	},
	"scene":0,
	"scenes":[
		{
			"name":"Scene",
			"nodes":[
				1
			]
		}
	],
	"nodes":[
		{
			"mesh":0,
			"name":"Cylinder"
		},
		{
			"mesh":1,
			"name":"Cylinder.003",
			"translation":[
				0,
				0.15067417919635773,
				0
			]
		}
	],
	"meshes":[
		{
			"name":"Cylinder.002",
			"primitives":[
				{
					"attributes":{
						"POSITION":0,
						"NORMAL":1,
						"TEXCOORD_0":2
					},
					"indices":3
				}
			]
		},
		{
			"name":"Cylinder.005",
			"primitives":[
				{
					"attributes":{
						"POSITION":4,
						"NORMAL":5,
						"TEXCOORD_0":6
					},
					"indices":7
				}
			]
		}
	],
	"accessors":[
		{
			"bufferView":0,
			"componentType":5126,
			"count":768,
			"max":[
				1,
				0.15000000596046448,
				1
			],
			"min":[
				-1,
				-0.15000000596046448,
				-1
			],
			"type":"VEC3"
		},
		{
			"bufferView":1,
			"componentType":5126,
			"count":768,
			"type":"VEC3"
		},
		{
			"bufferView":2,
			"componentType":5126,
			"count":768,
			"type":"VEC2"
		},
		{
			"bufferView":3,
			"componentType":5123,
			"count":1524,
			"type":"SCALAR"
		},
		{
			"bufferView":4,
			"componentType":5126,
			"count":3840,
			"max":[
				1,
				0.15000000596046448,
				1
			],
			"min":[
				-1,
				-0.15000000596046448,
				-1
			],
			"type":"VEC3"
		},
		{
			"bufferView":5,
			"componentType":5126,
			"count":3840,
			"type":"VEC3"
		},
		{
			"bufferView":6,
			"componentType":5126,
			"count":3840,
			"type":"VEC2"
		},
		{
			"bufferView":7,
			"componentType":5123,
			"count":6132,
			"type":"SCALAR"
		}
	],
	"bufferViews":[
		{
			"buffer":0,
			"byteLength":9216,
			"byteOffset":0,
			"target":34962
		},
		{
			"buffer":0,
			"byteLength":9216,
			"byteOffset":9216,
			"target":34962
		},
		{
			"buffer":0,
			"byteLength":6144,
			"byteOffset":18432,
			"target":34962
		},
		{
			"buffer":0,
			"byteLength":3048,
			"byteOffset":24576,
			"target":34963
		},
		{
			"buffer":0,
			"byteLength":46080,
			"byteOffset":27624,
			"target":34962
		},
		{
			"buffer":0,
			"byteLength":46080,
			"byteOffset":73704,
			"target":34962
		},
		{
			"buffer":0,
			"byteLength":30720,
			"byteOffset":119784,
			"target":34962
		},
		{
			"buffer":0,
			"byteLength":12264,
			"byteOffset":150504,
			"target":34963
		}
	],
	"buffers":[
		{
			"byteLength":162768,
			"uri":"podium1.bin"
		}
	]
}
